<svg xmlns="http://www.w3.org/2000/svg" version="1.1" xmlns:xlink="http://www.w3.org/1999/xlink" xmlns:svgjs="http://svgjs.dev/svgjs" width="1440" height="560" preserveAspectRatio="none" viewBox="0 0 1440 560"><g mask="url(&quot;#SvgjsMask1014&quot;)" fill="none"><rect width="1440" height="560" x="0" y="0" fill="rgba(246, 255, 108, 1)"></rect><path d="M18.83 -3.6L83.78 33.9L83.78 108.9L18.83 146.4L-46.12 108.9L-46.12 33.9zM148.74 221.4L213.69 258.9L213.69 333.9L148.74 371.4L83.78 333.9L83.78 258.9zM213.69 558.9L278.64 596.4L278.64 671.4L213.69 708.9L148.74 671.4L148.74 596.4zM278.64 221.4L343.6 258.9L343.6 333.9L278.64 371.4L213.69 333.9L213.69 258.9zM343.6 333.9L408.55 371.4L408.55 446.4L343.6 483.9L278.64 446.4L278.64 371.4zM278.64 446.4L343.6 483.9L343.6 558.9L278.64 596.4L213.69 558.9L213.69 483.9zM733.32 558.9L798.28 596.4L798.28 671.4L733.32 708.9L668.37 671.4L668.37 596.4zM798.27 -3.6L863.23 33.9L863.23 108.9L798.27 146.4L733.32 108.9L733.32 33.9zM798.27 221.4L863.23 258.9L863.23 333.9L798.27 371.4L733.32 333.9L733.32 258.9zM863.23 333.9L928.18 371.4L928.18 446.4L863.23 483.9L798.27 446.4L798.27 371.4zM928.18 -3.6L993.14 33.9L993.14 108.9L928.18 146.4L863.23 108.9L863.23 33.9zM993.14 108.9L1058.09 146.4L1058.09 221.4L993.14 258.9L928.18 221.4L928.18 146.4zM993.14 558.9L1058.09 596.4L1058.09 671.4L993.14 708.9L928.18 671.4L928.18 596.4zM1058.09 446.4L1123.04 483.9L1123.04 558.9L1058.09 596.4L993.14 558.9L993.14 483.9zM1123.04 558.9L1188 596.4L1188 671.4L1123.04 708.9L1058.09 671.4L1058.09 596.4zM1252.95 108.9L1317.9 146.4L1317.9 221.4L1252.95 258.9L1188 221.4L1188 146.4zM1252.95 333.9L1317.9 371.4L1317.9 446.4L1252.95 483.9L1188 446.4L1188 371.4zM1317.9 -3.6L1382.86 33.9L1382.86 108.9L1317.9 146.4L1252.95 108.9L1252.95 33.9zM1317.9 221.4L1382.86 258.9L1382.86 333.9L1317.9 371.4L1252.95 333.9L1252.95 258.9zM1382.86 333.9L1447.81 371.4L1447.81 446.4L1382.86 483.9L1317.9 446.4L1317.9 371.4zM1447.81 -3.6L1512.77 33.9L1512.77 108.9L1447.81 146.4L1382.86 108.9L1382.86 33.9zM1512.77 108.9L1577.72 146.4L1577.72 221.4L1512.77 258.9L1447.81 221.4L1447.81 146.4zM1512.77 333.9L1577.72 371.4L1577.72 446.4L1512.77 483.9L1447.81 446.4L1447.81 371.4z" stroke="rgba(240, 242, 164, 1)" stroke-width="2"></path><path d="M11.33 -3.6 a7.5 7.5 0 1 0 15 0 a7.5 7.5 0 1 0 -15 0zM76.28 33.9 a7.5 7.5 0 1 0 15 0 a7.5 7.5 0 1 0 -15 0zM76.28 108.9 a7.5 7.5 0 1 0 15 0 a7.5 7.5 0 1 0 -15 0zM11.33 146.4 a7.5 7.5 0 1 0 15 0 a7.5 7.5 0 1 0 -15 0zM-53.62 108.9 a7.5 7.5 0 1 0 15 0 a7.5 7.5 0 1 0 -15 0zM-53.62 33.9 a7.5 7.5 0 1 0 15 0 a7.5 7.5 0 1 0 -15 0zM141.24 221.4 a7.5 7.5 0 1 0 15 0 a7.5 7.5 0 1 0 -15 0zM206.19 258.9 a7.5 7.5 0 1 0 15 0 a7.5 7.5 0 1 0 -15 0zM206.19 333.9 a7.5 7.5 0 1 0 15 0 a7.5 7.5 0 1 0 -15 0zM141.24 371.4 a7.5 7.5 0 1 0 15 0 a7.5 7.5 0 1 0 -15 0zM76.28 333.9 a7.5 7.5 0 1 0 15 0 a7.5 7.5 0 1 0 -15 0zM76.28 258.9 a7.5 7.5 0 1 0 15 0 a7.5 7.5 0 1 0 -15 0zM206.19 558.9 a7.5 7.5 0 1 0 15 0 a7.5 7.5 0 1 0 -15 0zM271.14 596.4 a7.5 7.5 0 1 0 15 0 a7.5 7.5 0 1 0 -15 0zM271.14 671.4 a7.5 7.5 0 1 0 15 0 a7.5 7.5 0 1 0 -15 0zM206.19 708.9 a7.5 7.5 0 1 0 15 0 a7.5 7.5 0 1 0 -15 0zM141.24 671.4 a7.5 7.5 0 1 0 15 0 a7.5 7.5 0 1 0 -15 0zM141.24 596.4 a7.5 7.5 0 1 0 15 0 a7.5 7.5 0 1 0 -15 0zM271.14 221.4 a7.5 7.5 0 1 0 15 0 a7.5 7.5 0 1 0 -15 0zM336.1 258.9 a7.5 7.5 0 1 0 15 0 a7.5 7.5 0 1 0 -15 0zM336.1 333.9 a7.5 7.5 0 1 0 15 0 a7.5 7.5 0 1 0 -15 0zM271.14 371.4 a7.5 7.5 0 1 0 15 0 a7.5 7.5 0 1 0 -15 0zM401.05 371.4 a7.5 7.5 0 1 0 15 0 a7.5 7.5 0 1 0 -15 0zM401.05 446.4 a7.5 7.5 0 1 0 15 0 a7.5 7.5 0 1 0 -15 0zM336.1 483.9 a7.5 7.5 0 1 0 15 0 a7.5 7.5 0 1 0 -15 0zM271.14 446.4 a7.5 7.5 0 1 0 15 0 a7.5 7.5 0 1 0 -15 0zM336.1 558.9 a7.5 7.5 0 1 0 15 0 a7.5 7.5 0 1 0 -15 0zM206.19 483.9 a7.5 7.5 0 1 0 15 0 a7.5 7.5 0 1 0 -15 0zM725.82 558.9 a7.5 7.5 0 1 0 15 0 a7.5 7.5 0 1 0 -15 0zM790.78 596.4 a7.5 7.5 0 1 0 15 0 a7.5 7.5 0 1 0 -15 0zM790.78 671.4 a7.5 7.5 0 1 0 15 0 a7.5 7.5 0 1 0 -15 0zM725.82 708.9 a7.5 7.5 0 1 0 15 0 a7.5 7.5 0 1 0 -15 0zM660.87 671.4 a7.5 7.5 0 1 0 15 0 a7.5 7.5 0 1 0 -15 0zM660.87 596.4 a7.5 7.5 0 1 0 15 0 a7.5 7.5 0 1 0 -15 0zM790.77 -3.6 a7.5 7.5 0 1 0 15 0 a7.5 7.5 0 1 0 -15 0zM855.73 33.9 a7.5 7.5 0 1 0 15 0 a7.5 7.5 0 1 0 -15 0zM855.73 108.9 a7.5 7.5 0 1 0 15 0 a7.5 7.5 0 1 0 -15 0zM790.77 146.4 a7.5 7.5 0 1 0 15 0 a7.5 7.5 0 1 0 -15 0zM725.82 108.9 a7.5 7.5 0 1 0 15 0 a7.5 7.5 0 1 0 -15 0zM725.82 33.9 a7.5 7.5 0 1 0 15 0 a7.5 7.5 0 1 0 -15 0zM790.77 221.4 a7.5 7.5 0 1 0 15 0 a7.5 7.5 0 1 0 -15 0zM855.73 258.9 a7.5 7.5 0 1 0 15 0 a7.5 7.5 0 1 0 -15 0zM855.73 333.9 a7.5 7.5 0 1 0 15 0 a7.5 7.5 0 1 0 -15 0zM790.77 371.4 a7.5 7.5 0 1 0 15 0 a7.5 7.5 0 1 0 -15 0zM725.82 333.9 a7.5 7.5 0 1 0 15 0 a7.5 7.5 0 1 0 -15 0zM725.82 258.9 a7.5 7.5 0 1 0 15 0 a7.5 7.5 0 1 0 -15 0zM920.68 371.4 a7.5 7.5 0 1 0 15 0 a7.5 7.5 0 1 0 -15 0zM920.68 446.4 a7.5 7.5 0 1 0 15 0 a7.5 7.5 0 1 0 -15 0zM855.73 483.9 a7.5 7.5 0 1 0 15 0 a7.5 7.5 0 1 0 -15 0zM790.77 446.4 a7.5 7.5 0 1 0 15 0 a7.5 7.5 0 1 0 -15 0zM920.68 -3.6 a7.5 7.5 0 1 0 15 0 a7.5 7.5 0 1 0 -15 0zM985.64 33.9 a7.5 7.5 0 1 0 15 0 a7.5 7.5 0 1 0 -15 0zM985.64 108.9 a7.5 7.5 0 1 0 15 0 a7.5 7.5 0 1 0 -15 0zM920.68 146.4 a7.5 7.5 0 1 0 15 0 a7.5 7.5 0 1 0 -15 0zM1050.59 146.4 a7.5 7.5 0 1 0 15 0 a7.5 7.5 0 1 0 -15 0zM1050.59 221.4 a7.5 7.5 0 1 0 15 0 a7.5 7.5 0 1 0 -15 0zM985.64 258.9 a7.5 7.5 0 1 0 15 0 a7.5 7.5 0 1 0 -15 0zM920.68 221.4 a7.5 7.5 0 1 0 15 0 a7.5 7.5 0 1 0 -15 0zM985.64 558.9 a7.5 7.5 0 1 0 15 0 a7.5 7.5 0 1 0 -15 0zM1050.59 596.4 a7.5 7.5 0 1 0 15 0 a7.5 7.5 0 1 0 -15 0zM1050.59 671.4 a7.5 7.5 0 1 0 15 0 a7.5 7.5 0 1 0 -15 0zM985.64 708.9 a7.5 7.5 0 1 0 15 0 a7.5 7.5 0 1 0 -15 0zM920.68 671.4 a7.5 7.5 0 1 0 15 0 a7.5 7.5 0 1 0 -15 0zM920.68 596.4 a7.5 7.5 0 1 0 15 0 a7.5 7.5 0 1 0 -15 0zM1050.59 446.4 a7.5 7.5 0 1 0 15 0 a7.5 7.5 0 1 0 -15 0zM1115.54 483.9 a7.5 7.5 0 1 0 15 0 a7.5 7.5 0 1 0 -15 0zM1115.54 558.9 a7.5 7.5 0 1 0 15 0 a7.5 7.5 0 1 0 -15 0zM985.64 483.9 a7.5 7.5 0 1 0 15 0 a7.5 7.5 0 1 0 -15 0zM1180.5 596.4 a7.5 7.5 0 1 0 15 0 a7.5 7.5 0 1 0 -15 0zM1180.5 671.4 a7.5 7.5 0 1 0 15 0 a7.5 7.5 0 1 0 -15 0zM1115.54 708.9 a7.5 7.5 0 1 0 15 0 a7.5 7.5 0 1 0 -15 0zM1245.45 108.9 a7.5 7.5 0 1 0 15 0 a7.5 7.5 0 1 0 -15 0zM1310.4 146.4 a7.5 7.5 0 1 0 15 0 a7.5 7.5 0 1 0 -15 0zM1310.4 221.4 a7.5 7.5 0 1 0 15 0 a7.5 7.5 0 1 0 -15 0zM1245.45 258.9 a7.5 7.5 0 1 0 15 0 a7.5 7.5 0 1 0 -15 0zM1180.5 221.4 a7.5 7.5 0 1 0 15 0 a7.5 7.5 0 1 0 -15 0zM1180.5 146.4 a7.5 7.5 0 1 0 15 0 a7.5 7.5 0 1 0 -15 0zM1245.45 333.9 a7.5 7.5 0 1 0 15 0 a7.5 7.5 0 1 0 -15 0zM1310.4 371.4 a7.5 7.5 0 1 0 15 0 a7.5 7.5 0 1 0 -15 0zM1310.4 446.4 a7.5 7.5 0 1 0 15 0 a7.5 7.5 0 1 0 -15 0zM1245.45 483.9 a7.5 7.5 0 1 0 15 0 a7.5 7.5 0 1 0 -15 0zM1180.5 446.4 a7.5 7.5 0 1 0 15 0 a7.5 7.5 0 1 0 -15 0zM1180.5 371.4 a7.5 7.5 0 1 0 15 0 a7.5 7.5 0 1 0 -15 0zM1310.4 -3.6 a7.5 7.5 0 1 0 15 0 a7.5 7.5 0 1 0 -15 0zM1375.36 33.9 a7.5 7.5 0 1 0 15 0 a7.5 7.5 0 1 0 -15 0zM1375.36 108.9 a7.5 7.5 0 1 0 15 0 a7.5 7.5 0 1 0 -15 0zM1245.45 33.9 a7.5 7.5 0 1 0 15 0 a7.5 7.5 0 1 0 -15 0zM1375.36 258.9 a7.5 7.5 0 1 0 15 0 a7.5 7.5 0 1 0 -15 0zM1375.36 333.9 a7.5 7.5 0 1 0 15 0 a7.5 7.5 0 1 0 -15 0zM1440.31 371.4 a7.5 7.5 0 1 0 15 0 a7.5 7.5 0 1 0 -15 0zM1440.31 446.4 a7.5 7.5 0 1 0 15 0 a7.5 7.5 0 1 0 -15 0zM1375.36 483.9 a7.5 7.5 0 1 0 15 0 a7.5 7.5 0 1 0 -15 0zM1440.31 -3.6 a7.5 7.5 0 1 0 15 0 a7.5 7.5 0 1 0 -15 0zM1505.27 33.9 a7.5 7.5 0 1 0 15 0 a7.5 7.5 0 1 0 -15 0zM1505.27 108.9 a7.5 7.5 0 1 0 15 0 a7.5 7.5 0 1 0 -15 0zM1440.31 146.4 a7.5 7.5 0 1 0 15 0 a7.5 7.5 0 1 0 -15 0zM1570.22 146.4 a7.5 7.5 0 1 0 15 0 a7.5 7.5 0 1 0 -15 0zM1570.22 221.4 a7.5 7.5 0 1 0 15 0 a7.5 7.5 0 1 0 -15 0zM1505.27 258.9 a7.5 7.5 0 1 0 15 0 a7.5 7.5 0 1 0 -15 0zM1440.31 221.4 a7.5 7.5 0 1 0 15 0 a7.5 7.5 0 1 0 -15 0zM1505.27 333.9 a7.5 7.5 0 1 0 15 0 a7.5 7.5 0 1 0 -15 0zM1570.22 371.4 a7.5 7.5 0 1 0 15 0 a7.5 7.5 0 1 0 -15 0zM1570.22 446.4 a7.5 7.5 0 1 0 15 0 a7.5 7.5 0 1 0 -15 0zM1505.27 483.9 a7.5 7.5 0 1 0 15 0 a7.5 7.5 0 1 0 -15 0z" fill="rgba(240, 242, 164, 1)"></path><path d="M179.65 183.75L222.95 208.75L222.95 258.75L179.65 283.75L136.34 258.75L136.34 208.75zM222.95 -41.25L266.25 -16.25L266.25 33.75L222.95 58.75L179.65 33.75L179.65 -16.25zM222.95 408.75L266.25 433.75L266.25 483.75L222.95 508.75L179.65 483.75L179.65 433.75zM352.86 333.75L396.16 358.75L396.16 408.75L352.86 433.75L309.56 408.75L309.56 358.75zM309.56 408.75L352.86 433.75L352.86 483.75L309.56 508.75L266.25 483.75L266.25 433.75zM352.86 483.75L396.16 508.75L396.16 558.75L352.86 583.75L309.56 558.75L309.56 508.75zM482.77 -41.25L526.07 -16.25L526.07 33.75L482.77 58.75L439.46 33.75L439.46 -16.25zM569.37 -41.25L612.67 -16.25L612.67 33.75L569.37 58.75L526.07 33.75L526.07 -16.25zM655.98 -41.25L699.28 -16.25L699.28 33.75L655.98 58.75L612.67 33.75L612.67 -16.25zM699.28 183.75L742.58 208.75L742.58 258.75L699.28 283.75L655.98 258.75L655.98 208.75zM655.98 258.75L699.28 283.75L699.28 333.75L655.98 358.75L612.67 333.75L612.67 283.75zM655.98 408.75L699.28 433.75L699.28 483.75L655.98 508.75L612.67 483.75L612.67 433.75zM742.58 -41.25L785.88 -16.25L785.88 33.75L742.58 58.75L699.28 33.75L699.28 -16.25zM742.58 258.75L785.88 283.75L785.88 333.75L742.58 358.75L699.28 333.75L699.28 283.75zM785.88 333.75L829.19 358.75L829.19 408.75L785.88 433.75L742.58 408.75L742.58 358.75zM742.58 408.75L785.88 433.75L785.88 483.75L742.58 508.75L699.28 483.75L699.28 433.75zM872.49 33.75L915.79 58.75L915.79 108.75L872.49 133.75L829.19 108.75L829.19 58.75zM915.79 -41.25L959.09 -16.25L959.09 33.75L915.79 58.75L872.49 33.75L872.49 -16.25zM959.09 333.75L1002.4 358.75L1002.4 408.75L959.09 433.75L915.79 408.75L915.79 358.75zM959.09 483.75L1002.4 508.75L1002.4 558.75L959.09 583.75L915.79 558.75L915.79 508.75zM1045.7 33.75L1089 58.75L1089 108.75L1045.7 133.75L1002.4 108.75L1002.4 58.75zM1045.7 183.75L1089 208.75L1089 258.75L1045.7 283.75L1002.4 258.75L1002.4 208.75zM1089 -41.25L1132.3 -16.25L1132.3 33.75L1089 58.75L1045.7 33.75L1045.7 -16.25zM1132.3 33.75L1175.61 58.75L1175.61 108.75L1132.3 133.75L1089 108.75L1089 58.75zM1132.3 333.75L1175.61 358.75L1175.61 408.75L1132.3 433.75L1089 408.75L1089 358.75zM1218.91 333.75L1262.21 358.75L1262.21 408.75L1218.91 433.75L1175.61 408.75L1175.61 358.75zM1305.51 33.75L1348.82 58.75L1348.82 108.75L1305.51 133.75L1262.21 108.75L1262.21 58.75z" stroke="rgba(255, 255, 255, 0.54)" stroke-width="2"></path></g><defs><mask id="SvgjsMask1014"><rect width="1440" height="560" fill="#ffffff"></rect></mask></defs></svg>